<svg width="24" height="24" viewBox="0 0 24 24" fill="none" xmlns="http://www.w3.org/2000/svg">
<g clip-path="url(#clip0_2_621)">
<path d="M11.9996 22.853C12.4195 22.8433 12.8225 22.6855 13.1373 22.4073C13.4521 22.1291 13.6583 21.7486 13.7196 21.333H10.2129C10.2759 21.7599 10.4918 22.1493 10.8204 22.4289C11.1491 22.7085 11.5681 22.8592 11.9996 22.853Z" fill="#656575"/>
<path d="M21.8994 18.7536L21.6727 18.5536C21.0297 17.9807 20.4668 17.3236 19.9994 16.6003C19.4889 15.602 19.1829 14.5117 19.0994 13.3936V10.1003C19.0967 9.70023 19.061 9.3011 18.9927 8.90693C17.8635 8.67482 16.8491 8.05961 16.1214 7.16545C15.3937 6.27129 14.9973 5.15312 14.9994 4.00026V3.58026C14.3033 3.23772 13.5555 3.01247 12.786 2.91359V2.07359C12.786 1.83755 12.6923 1.61118 12.5254 1.44427C12.3585 1.27736 12.1321 1.18359 11.896 1.18359C11.66 1.18359 11.4336 1.27736 11.2667 1.44427C11.0998 1.61118 11.006 1.83755 11.006 2.07359V2.94693C9.28319 3.18996 7.70643 4.04809 6.56686 5.36288C5.42729 6.67768 4.80187 8.36035 4.80605 10.1003V13.3936C4.72255 14.5117 4.41657 15.602 3.90605 16.6003C3.44664 17.3218 2.89284 17.9788 2.25938 18.5536L2.03271 18.7536V20.6336H21.8994V18.7536Z" fill="#656575"/>
<path d="M19.9993 7.33366C21.8403 7.33366 23.3327 5.84127 23.3327 4.00033C23.3327 2.15938 21.8403 0.666992 19.9993 0.666992C18.1584 0.666992 16.666 2.15938 16.666 4.00033C16.666 5.84127 18.1584 7.33366 19.9993 7.33366Z" fill="#299D91"/>
</g>
<defs>
<clipPath id="clip0_2_621">
<rect width="24" height="24" fill="white"/>
</clipPath>
</defs>
</svg>
